:SAMPLES-PER-SECOND 24
:FULLY-SPECIFIED
:DEGREES
215
root  3.10464 38.7272 -30.9068 -179.044 -44.9904 -168.976
RightUpLeg  -15.1715 -38.2108 13.5948
RightLeg  46.0539 -25.8282 -26.0512
RightFoot  -6.31937 -0.814347 17.4565
RightToes  -2.09809e-008 3.77894e-005 6.81332e-007
Spine  2.62862 13.8812 17.6691
Spine1  -3.15626 17.8659 -27.6332
HEad  -18.4469 1.28334 -2.31728
LeftShoulder1  6.34273 -12.2097 -34.3552
LeftArm  -3.23361 32.2676 -27.845
LeftForeArm  155.72 -71.6192 -148.893
LeftHand  -0.257349 -1.07942 4.75027
RightShoulder  3.33948 6.79152 26.4148
RightArm  22.0524 18.4495 37.7191
RightForeArm  70.2255 78.5327 54.5282
RightHand  -0.451553 8.76165 -4.081
LeftUpLeg  -32.7182 20.9774 -9.22604
LeftLeg  18.1701 21.7387 8.01908
LeftFoot  -5.9477 -0.326157 7.67293
LeftToes  1.24773e-006 1.46318e-008 1.32523e-009
216
root  2.43582 38.6768 -32.088 173.011 -55.6488 -161.438
RightUpLeg  -22.2841 -36.6141 13.7163
RightLeg  61.7604 -15.0778 -27.74
RightFoot  14.8575 -2.46923 10.9197
RightToes  -2.09809e-008 3.77894e-005 6.81332e-007
Spine  2.04646 12.4389 13.5384
Spine1  -3.01377 15.971 -24.4609
HEad  -17.835 -4.14601 3.7174
LeftShoulder1  6.30075 -12.1441 -34.2571
LeftArm  -3.62716 27.9893 -24.4535
LeftForeArm  153.634 -72.123 -147.667
LeftHand  -0.299914 -1.42583 5.26693
RightShoulder  3.31069 6.68304 26.4816
RightArm  22.9456 13.1735 34.8638
RightForeArm  82.8714 79.8547 67.8406
RightHand  -0.421866 9.05797 -3.77275
LeftUpLeg  -31.0005 13.4222 -4.28329
LeftLeg  22.9479 18.5794 8.70418
LeftFoot  -7.82933 -0.232901 9.02009
LeftToes  1.24773e-006 1.46318e-008 1.32523e-009
217
root  1.86527 38.5249 -33.0065 157.569 -64.8213 -146.266
RightUpLeg  -28.7866 -33.713 12.1357
RightLeg  72.6048 -3.79808 -14.0159
RightFoot  28.9318 -4.25477 12.0151
RightToes  -2.09809e-008 3.77894e-005 6.81332e-007
Spine  2.55096 10.6227 9.49241
Spine1  -2.47695 13.8253 -20.1482
HEad  -17.4185 -9.22109 8.79432
LeftShoulder1  6.34511 -12.1935 -34.4114
LeftArm  -3.35518 20.4508 -21.2698
LeftForeArm  149.415 -73.7683 -143.605
LeftHand  -0.305515 -1.42713 5.36052
RightShoulder  3.44011 6.6655 27.8564
RightArm  23.4478 6.76627 31.1447
RightForeArm  98.6541 80.538 83.5953
RightHand  -0.376486 9.38767 -3.34632
LeftUpLeg  -31.1984 8.42221 0.334865
LeftLeg  28.3162 13.4217 8.03958
LeftFoot  -10.273 -0.0131109 7.99741
LeftToes  1.24773e-006 1.46318e-008 1.32523e-009
218
root  1.20028 38.6586 -33.7647 131.861 -67.8233 -120.425
RightUpLeg  -33.1599 -30.9108 10.2021
RightLeg  83.0352 -0.306092 -6.70214
RightFoot  26.4081 -5.56712 16.799
RightToes  -2.09809e-008 3.77894e-005 6.81332e-007
Spine  2.15913 9.34347 7.75136
Spine1  -1.3741 11.8193 -14.5139
HEad  -16.9778 -12.4913 12.9734
LeftShoulder1  6.16721 -12.0042 -33.7657
LeftArm  -2.46955 12.7683 -20.8253
LeftForeArm  146.261 -75.0767 -139.759
LeftHand  -0.318569 -1.30824 5.67232
RightShoulder  3.59571 6.68225 29.3728
RightArm  23.941 0.331272 28.2619
RightForeArm  111.778 80.5936 95.8493
RightHand  -0.359451 9.4418 -3.20363
LeftUpLeg  -30.931 2.16032 7.79861
LeftLeg  31.2236 11.3492 7.68371
LeftFoot  -11.3363 0.0681377 7.26222
LeftToes  1.24773e-006 1.46318e-008 1.32523e-009
219
root  0.417349 39.0472 -34.362 106.733 -63.8083 -95.3863
RightUpLeg  -34.2684 -29.4558 6.31177
RightLeg  90.6895 0.79616 -10.4577
RightFoot  21.7118 -4.46792 15.4964
RightToes  -2.09809e-008 3.77894e-005 6.81332e-007
Spine  0.791065 8.00504 6.54184
Spine1  -0.0603836 8.85052 -5.03454
HEad  -16.0556 -13.4374 15.3816
LeftShoulder1  5.90379 -11.7459 -32.7171
LeftArm  -0.520936 7.17145 -22.1425
LeftForeArm  146.098 -75.3984 -138.825
LeftHand  -0.329486 -1.42602 5.77044
RightShoulder  3.63918 6.63912 29.9643
RightArm  24.4215 -4.9982 26.7965
RightForeArm  121.176 80.3655 104.636
RightHand  -0.346828 9.60437 -3.07831
LeftUpLeg  -30.093 -5.54824 17.6907
LeftLeg  32.1993 11.6138 8.12421
LeftFoot  -11.6904 0.0885389 5.98186
LeftToes  1.24773e-006 1.46318e-008 1.32523e-009
220
root  -0.381311 39.6213 -34.8167 91.2573 -55.8353 -80.212
RightUpLeg  -30.8202 -27.6923 -0.960623
RightLeg  92.3566 1.31273 -13.1454
RightFoot  20.2989 -3.51277 12.8658
RightToes  -2.09809e-008 3.77894e-005 6.81332e-007
Spine  -0.624504 6.30063 4.3736
Spine1  0.461313 4.84511 7.33544
HEad  -14.7208 -13.154 16.6071
LeftShoulder1  5.57184 -11.4114 -31.3565
LeftArm  1.98136 3.22996 -23.5885
LeftForeArm  148.503 -74.9748 -140.47
LeftHand  -0.312248 -1.5619 5.37925
RightShoulder  3.66817 6.63634 30.2656
RightArm  24.6895 -9.20073 25.6516
RightForeArm  132.199 79.6476 115.851
RightHand  -0.26161 9.79208 -2.39793
LeftUpLeg  -29.098 -9.15935 27.5194
LeftLeg  30.553 9.84984 6.581
LeftFoot  -11.0644 0.0540438 5.00389
LeftToes  1.24773e-006 1.46318e-008 1.32523e-009
221
root  -1.21325 40.3012 -35.1363 83.5542 -47.1561 -72.0001
RightUpLeg  -24.1079 -25.1491 -9.63277
RightLeg  86.988 0.0865992 -12.0789
RightFoot  19.5982 -4.00417 14.9038
RightToes  -2.09809e-008 3.77894e-005 6.81332e-007
Spine  -2.64031 4.53911 1.85841
Spine1  0.139902 0.89032 19.2248
HEad  -13.6674 -13.0877 17.8906
LeftShoulder1  5.10587 -10.8849 -29.4564
LeftArm  4.83262 -0.645259 -24.417
LeftForeArm  151.191 -74.2967 -142.695
LeftHand  -0.2769 -1.6046 4.76064
RightShoulder  3.71635 6.62514 30.7901
RightArm  24.6868 -13.3124 24.1612
RightForeArm  145.163 77.972 129.378
RightHand  -0.164202 9.74148 -1.65959
LeftUpLeg  -28.7335 -6.9275 35.3664
LeftLeg  26.6855 6.50458 3.88764
LeftFoot  -8.88221 -0.0729986 5.76137
LeftToes  1.24773e-006 1.46318e-008 1.32523e-009
222
root  -1.9682 40.8422 -35.4498 79.701 -39.7403 -67.1643
RightUpLeg  -15.3369 -21.1068 -17.7874
RightLeg  74.7268 -2.05903 -9.87016
RightFoot  20.1238 -4.67991 16.999
RightToes  -2.09809e-008 3.77894e-005 6.81332e-007
Spine  -4.53309 3.04809 0.024862
Spine1  -0.336767 -2.16845 27.2956
HEad  -13.3633 -13.6697 19.4376
LeftShoulder1  4.54427 -10.2163 -27.0317
LeftArm  8.03032 -5.31598 -24.9051
LeftForeArm  152.763 -73.7168 -144.314
LeftHand  -0.214995 -1.8399 3.62812
RightShoulder  3.6754 6.4839 30.9025
RightArm  23.9701 -17.6359 23.0768
RightForeArm  153.9 75.8084 139.176
RightHand  -0.0377256 9.97012 -0.692514
LeftUpLeg  -29.4964 -1.96173 40.0593
LeftLeg  23.4127 6.29342 3.31173
LeftFoot  -6.36335 -0.224665 6.04218
LeftToes  1.24773e-006 1.46318e-008 1.32523e-009
223
root  -2.68338 41.2556 -35.6616 78.0149 -33.8921 -65.095
RightUpLeg  -5.47778 -13.0979 -23.1051
RightLeg  55.6766 -5.15713 -8.49402
RightFoot  22.6049 -4.52454 15.2736
RightToes  -2.09809e-008 3.77894e-005 6.81332e-007
Spine  -6.54652 2.32129 -1.33405
Spine1  -0.157868 -4.19166 32.9939
HEad  -13.3398 -14.7696 20.812
LeftShoulder1  4.08624 -9.67915 -24.8233
LeftArm  10.8407 -9.58848 -25.6356
LeftForeArm  154.089 -73.063 -145.929
LeftHand  -0.163491 -2.17589 2.70008
RightShoulder  3.48874 6.21061 30.002
RightArm  22.8105 -21.1412 22.0139
RightForeArm  158.312 73.6949 145.292
RightHand  0.229222 10.4891 1.25329
LeftUpLeg  -29.6765 4.67804 41.744
LeftLeg  19.9302 11.0081 4.70616
LeftFoot  -4.26429 -0.288296 5.07418
LeftToes  1.24773e-006 1.46318e-008 1.32523e-009
224
root  -3.4644 41.4477 -35.9012 78.524 -29.9093 -65.0056
RightUpLeg  2.69812 1.15951 -24.5498
RightLeg  34.7753 -8.53552 -6.55421
RightFoot  22.8787 -2.99747 10.1753
RightToes  -2.09809e-008 3.77894e-005 6.81332e-007
Spine  -9.78397 2.00482 -3.40086
Spine1  0.263503 -5.52178 37.4957
HEad  -12.824 -16.1733 22.2421
LeftShoulder1  3.69588 -9.21018 -22.7947
LeftArm  13.0886 -12.003 -26.3295
LeftForeArm  155.867 -71.9516 -148.328
LeftHand  -0.167891 -2.27246 2.74089
RightShoulder  3.22079 5.85623 28.4643
RightArm  22.5121 -23.1928 20.4426
RightForeArm  161.259 71.7683 149.455
RightHand  0.43435 10.8962 2.66164
LeftUpLeg  -29.4823 11.7761 41.9102
LeftLeg  15.9267 17.5859 6.01187
LeftFoot  -3.4867 -0.301587 4.69609
LeftToes  1.24773e-006 1.46318e-008 1.32523e-009
225
root  -4.12108 41.3368 -36.4273 80.1734 -28.2922 -65.3556
RightUpLeg  6.79198 16.817 -25.8435
RightLeg  21.816 -11.3888 -5.18693
RightFoot  15.8895 -0.968539 4.38387
RightToes  -2.09809e-008 3.77894e-005 6.81332e-007
Spine  -11.9292 1.81768 -5.75397
Spine1  -0.637007 -5.70305 39.0111
HEad  -12.4401 -17.2623 23.5749
LeftShoulder1  3.32236 -8.63006 -20.9984
LeftArm  14.3891 -12.9268 -25.4798
LeftForeArm  158.471 -70.0882 -151.703
LeftHand  -0.150828 -2.16338 2.50477
RightShoulder  2.94374 5.46036 26.8384
RightArm  22.9253 -23.9661 19.5369
RightForeArm  163.355 70.5884 151.64
RightHand  0.407954 11.273 2.40575
LeftUpLeg  -29.3273 12.33 43.3731
LeftLeg  13.7986 23.8569 7.92383
LeftFoot  -4.1784 -0.23696 4.17544
LeftToes  1.24773e-006 1.46318e-008 1.32523e-009
